<svg xmlns="http://www.w3.org/2000/svg" xmlns:xlink="http://www.w3.org/1999/xlink" width="750" zoomAndPan="magnify" viewBox="0 0 562.5 225" height="300" preserveAspectRatio="xMidYMid meet" version="1.0"><defs><g/><clipPath id="f5ee6fbc3d"><path d="M 0 9 L 562 9 L 562 224.898438 L 0 224.898438 Z M 0 9 " clip-rule="nonzero"/></clipPath><clipPath id="8e81d509f4"><path d="M 0 0.691406 L 171.652344 0.691406 L 171.652344 201 L 0 201 Z M 0 0.691406 " clip-rule="nonzero"/></clipPath><clipPath id="618132f6cb"><rect x="0" width="562" y="0" height="216"/></clipPath></defs><g clip-path="url(#f5ee6fbc3d)"><g transform="matrix(1, 0, 0, 1, 0, 9)"><g clip-path="url(#618132f6cb)"><g clip-path="url(#8e81d509f4)"><path fill="#ffffff" d="M 18.703125 1.273438 C 18.378906 1.796875 0.972656 39.796875 0.191406 41.6875 C -0.0703125 42.339844 1.234375 42.535156 5.472656 42.535156 L 11.078125 42.535156 L 11.078125 64.304688 C 11.078125 88.226562 11.535156 93.050781 14.988281 103.285156 C 19.746094 117.558594 28.9375 130.074219 41.386719 139.527344 C 49.863281 145.914062 64.460938 151.976562 74.042969 153.085938 C 77.757812 153.539062 77.757812 153.539062 77.757812 157.582031 C 77.757812 160.710938 78.867188 160.515625 57.355469 160.515625 L 37.152344 160.515625 L 37.152344 176.808594 L 77.5625 176.808594 L 77.5625 200.929688 L 86.039062 200.929688 C 90.730469 200.929688 94.445312 200.734375 94.445312 200.40625 C 94.382812 200.144531 94.382812 194.734375 94.445312 188.347656 L 94.511719 176.808594 L 136.226562 176.808594 L 136.226562 160.515625 L 115.238281 160.382812 L 94.25 160.1875 L 94.25 153.734375 L 100.050781 152.628906 C 120.257812 148.652344 137.140625 137.308594 148.484375 120.101562 C 157.152344 107 160.867188 93.179688 160.933594 74.410156 C 160.933594 70.300781 160.933594 61.503906 160.996094 54.722656 L 160.996094 42.535156 L 166.277344 42.535156 C 170.253906 42.535156 171.492188 42.339844 171.230469 41.6875 C 169.210938 36.929688 152.980469 1.664062 152.589844 1.273438 C 152.328125 1.011719 147.832031 10.203125 142.617188 21.675781 L 133.097656 42.535156 L 144.703125 42.535156 L 144.375 63.847656 C 143.984375 87.640625 143.855469 89.140625 141.964844 95.65625 C 135.96875 116.320312 117.78125 132.878906 96.988281 136.65625 L 94.511719 137.113281 L 94.511719 42.597656 L 104.808594 42.207031 L 95.554688 21.804688 C 90.40625 10.53125 85.972656 1.402344 85.710938 1.339844 C 85.386719 1.339844 81.019531 10.53125 75.933594 21.804688 L 66.679688 42.207031 L 72.089844 42.402344 L 77.5625 42.597656 L 77.5625 89.792969 C 77.5625 127.921875 77.433594 137.050781 76.714844 137.050781 C 75.21875 137.050781 68.242188 135.09375 64.527344 133.660156 C 50.058594 128.054688 37.019531 115.015625 31.414062 100.546875 C 27.894531 91.617188 27.828125 90.574219 27.503906 65.804688 L 27.242188 42.535156 L 38.324219 42.535156 L 28.9375 21.871094 C 23.722656 10.53125 19.421875 1.078125 19.289062 0.949219 C 19.160156 0.816406 18.898438 1.011719 18.703125 1.273438 Z M 18.703125 1.273438 " fill-opacity="1" fill-rule="nonzero"/></g><g fill="#ffffff" fill-opacity="1"><g transform="translate(200.298312, 84.44333)"><g><path d="M 53 -40.390625 L 53 -12.609375 C 53 -10.847656 52.660156 -9.207031 51.984375 -7.6875 C 51.316406 -6.164062 50.414062 -4.835938 49.28125 -3.703125 C 48.15625 -2.578125 46.816406 -1.675781 45.265625 -1 C 43.710938 -0.332031 42.085938 0 40.390625 0 L 12.609375 0 C 10.847656 0 9.207031 -0.332031 7.6875 -1 C 6.164062 -1.675781 4.835938 -2.578125 3.703125 -3.703125 C 2.578125 -4.835938 1.675781 -6.164062 1 -7.6875 C 0.332031 -9.207031 0 -10.847656 0 -12.609375 L 0 -40.390625 C 0 -42.085938 0.332031 -43.710938 1 -45.265625 C 1.675781 -46.816406 2.578125 -48.15625 3.703125 -49.28125 C 4.835938 -50.414062 6.164062 -51.316406 7.6875 -51.984375 C 9.207031 -52.660156 10.847656 -53 12.609375 -53 L 40.390625 -53 C 42.085938 -53 43.75 -52.644531 45.375 -51.9375 L 45.375 -73.78125 L 53 -73.78125 Z M 45.375 -40.390625 L 45.375 -40.703125 C 45.300781 -41.972656 44.785156 -43.066406 43.828125 -43.984375 C 42.878906 -44.910156 41.734375 -45.375 40.390625 -45.375 L 12.609375 -45.375 C 11.203125 -45.375 10.019531 -44.894531 9.0625 -43.9375 C 8.101562 -42.976562 7.625 -41.796875 7.625 -40.390625 L 7.625 -12.609375 C 7.625 -11.203125 8.101562 -10.019531 9.0625 -9.0625 C 10.019531 -8.101562 11.203125 -7.625 12.609375 -7.625 L 40.390625 -7.625 C 41.796875 -7.625 42.976562 -8.101562 43.9375 -9.0625 C 44.894531 -10.019531 45.375 -11.203125 45.375 -12.609375 Z M 45.375 -40.390625 "/></g></g></g><g fill="#ffffff" fill-opacity="1"><g transform="translate(259.661443, 84.44333)"><g><path d="M 40.390625 -53 C 42.085938 -53 43.710938 -52.660156 45.265625 -51.984375 C 46.816406 -51.316406 48.15625 -50.414062 49.28125 -49.28125 C 50.414062 -48.15625 51.316406 -46.816406 51.984375 -45.265625 C 52.660156 -43.710938 53 -42.085938 53 -40.390625 L 53 -12.609375 C 53 -10.847656 52.660156 -9.207031 51.984375 -7.6875 C 51.316406 -6.164062 50.414062 -4.835938 49.28125 -3.703125 C 48.15625 -2.578125 46.816406 -1.675781 45.265625 -1 C 43.710938 -0.332031 42.085938 0 40.390625 0 L 12.609375 0 C 10.847656 0 9.207031 -0.332031 7.6875 -1 C 6.164062 -1.675781 4.835938 -2.578125 3.703125 -3.703125 C 2.578125 -4.835938 1.675781 -6.164062 1 -7.6875 C 0.332031 -9.207031 0 -10.847656 0 -12.609375 L 0 -40.390625 C 0 -42.085938 0.332031 -43.710938 1 -45.265625 C 1.675781 -46.816406 2.578125 -48.15625 3.703125 -49.28125 C 4.835938 -50.414062 6.164062 -51.316406 7.6875 -51.984375 C 9.207031 -52.660156 10.847656 -53 12.609375 -53 Z M 45.375 -40.390625 C 45.375 -41.796875 44.894531 -42.976562 43.9375 -43.9375 C 42.976562 -44.894531 41.796875 -45.375 40.390625 -45.375 L 12.609375 -45.375 C 11.203125 -45.375 10.019531 -44.894531 9.0625 -43.9375 C 8.101562 -42.976562 7.625 -41.796875 7.625 -40.390625 L 7.625 -12.609375 C 7.625 -11.203125 8.101562 -10.019531 9.0625 -9.0625 C 10.019531 -8.101562 11.203125 -7.625 12.609375 -7.625 L 40.390625 -7.625 C 41.796875 -7.625 42.976562 -8.101562 43.9375 -9.0625 C 44.894531 -10.019531 45.375 -11.203125 45.375 -12.609375 Z M 45.375 -40.390625 "/></g></g></g><g fill="#ffffff" fill-opacity="1"><g transform="translate(319.024574, 84.44333)"><g><path d="M 45.265625 -40.921875 C 45.117188 -42.117188 44.585938 -43.160156 43.671875 -44.046875 C 42.753906 -44.929688 41.625 -45.375 40.28125 -45.375 L 12.609375 -45.375 C 11.203125 -45.375 10.019531 -44.894531 9.0625 -43.9375 C 8.101562 -42.976562 7.625 -41.796875 7.625 -40.390625 L 7.625 0 L 0 0 L 0 -40.390625 C 0 -42.148438 0.332031 -43.789062 1 -45.3125 C 1.675781 -46.832031 2.578125 -48.15625 3.703125 -49.28125 C 4.835938 -50.414062 6.164062 -51.316406 7.6875 -51.984375 C 9.207031 -52.660156 10.847656 -53 12.609375 -53 L 40.28125 -53 C 41.976562 -53 43.582031 -52.679688 45.09375 -52.046875 C 46.613281 -51.410156 47.941406 -50.523438 49.078125 -49.390625 C 50.210938 -50.523438 51.519531 -51.410156 53 -52.046875 C 54.476562 -52.679688 56.101562 -53 57.875 -53 L 85.546875 -53 C 87.242188 -53 88.867188 -52.660156 90.421875 -51.984375 C 91.972656 -51.316406 93.3125 -50.414062 94.4375 -49.28125 C 95.570312 -48.15625 96.472656 -46.832031 97.140625 -45.3125 C 97.816406 -43.789062 98.15625 -42.148438 98.15625 -40.390625 L 98.15625 0 L 90.53125 0 L 90.53125 -40.390625 C 90.53125 -41.796875 90.050781 -42.976562 89.09375 -43.9375 C 88.132812 -44.894531 86.953125 -45.375 85.546875 -45.375 L 57.875 -45.375 C 56.53125 -45.375 55.398438 -44.929688 54.484375 -44.046875 C 53.566406 -43.160156 53.035156 -42.117188 52.890625 -40.921875 L 52.890625 0 L 45.265625 0 Z M 45.265625 -40.921875 "/></g></g></g><g fill="#ffffff" fill-opacity="1"><g transform="translate(423.546096, 84.44333)"><g><path d="M 52.78125 -11.984375 C 52.925781 -10.703125 53.457031 -9.617188 54.375 -8.734375 C 55.289062 -7.859375 56.382812 -7.382812 57.65625 -7.3125 L 57.65625 0.21875 C 55.96875 0.21875 54.378906 -0.0976562 52.890625 -0.734375 C 51.410156 -1.378906 50.066406 -2.265625 48.859375 -3.390625 C 47.734375 -2.328125 46.425781 -1.492188 44.9375 -0.890625 C 43.457031 -0.296875 41.90625 0 40.28125 0 L 12.515625 0 C 10.816406 0 9.207031 -0.332031 7.6875 -1 C 6.164062 -1.675781 4.835938 -2.578125 3.703125 -3.703125 C 2.578125 -4.835938 1.675781 -6.164062 1 -7.6875 C 0.332031 -9.207031 0 -10.816406 0 -12.515625 L 0 -40.171875 C 0 -41.867188 0.332031 -43.492188 1 -45.046875 C 1.675781 -46.597656 2.578125 -47.941406 3.703125 -49.078125 C 4.835938 -50.210938 6.164062 -51.113281 7.6875 -51.78125 C 9.207031 -52.445312 10.816406 -52.78125 12.515625 -52.78125 L 40.28125 -52.78125 C 41.976562 -52.78125 43.582031 -52.445312 45.09375 -51.78125 C 46.613281 -51.113281 47.941406 -50.210938 49.078125 -49.078125 C 50.210938 -47.941406 51.113281 -46.597656 51.78125 -45.046875 C 52.445312 -43.492188 52.78125 -41.867188 52.78125 -40.171875 Z M 45.15625 -40.171875 C 45.15625 -41.585938 44.675781 -42.769531 43.71875 -43.71875 C 42.769531 -44.675781 41.625 -45.15625 40.28125 -45.15625 L 12.515625 -45.15625 C 11.171875 -45.15625 10.019531 -44.675781 9.0625 -43.71875 C 8.101562 -42.769531 7.625 -41.585938 7.625 -40.171875 L 7.625 -12.515625 C 7.625 -11.097656 8.101562 -9.910156 9.0625 -8.953125 C 10.019531 -8.003906 11.171875 -7.53125 12.515625 -7.53125 L 40.28125 -7.53125 C 41.550781 -7.53125 42.644531 -7.96875 43.5625 -8.84375 C 44.476562 -9.726562 45.007812 -10.804688 45.15625 -12.078125 Z M 45.15625 -40.171875 "/></g></g></g><g fill="#ffffff" fill-opacity="1"><g transform="translate(482.697235, 84.44333)"><g><path d="M 1.375 -40.390625 C 1.375 -42.085938 1.691406 -43.691406 2.328125 -45.203125 C 2.960938 -46.722656 3.84375 -48.066406 4.96875 -49.234375 C 6.101562 -50.398438 7.410156 -51.316406 8.890625 -51.984375 C 10.378906 -52.660156 11.972656 -53 13.671875 -53 L 13.671875 -45.375 C 12.398438 -45.300781 11.304688 -44.785156 10.390625 -43.828125 C 9.472656 -42.878906 9.015625 -41.734375 9.015625 -40.390625 L 9.015625 0 L 1.375 0 Z M 5.1875 -56.1875 C 3.78125 -56.1875 2.5625 -56.675781 1.53125 -57.65625 C 0.507812 -58.644531 0 -59.847656 0 -61.265625 C 0 -62.679688 0.507812 -63.898438 1.53125 -64.921875 C 2.5625 -65.953125 3.78125 -66.46875 5.1875 -66.46875 C 6.601562 -66.46875 7.804688 -65.953125 8.796875 -64.921875 C 9.785156 -63.898438 10.28125 -62.679688 10.28125 -61.265625 C 10.28125 -59.847656 9.785156 -58.644531 8.796875 -57.65625 C 7.804688 -56.675781 6.601562 -56.1875 5.1875 -56.1875 Z M 5.1875 -56.1875 "/></g></g></g><g fill="#ffffff" fill-opacity="1"><g transform="translate(502.732298, 84.44333)"><g><path d="M 0 -40.390625 C 0 -42.148438 0.332031 -43.789062 1 -45.3125 C 1.675781 -46.832031 2.578125 -48.15625 3.703125 -49.28125 C 4.835938 -50.414062 6.164062 -51.316406 7.6875 -51.984375 C 9.207031 -52.660156 10.847656 -53 12.609375 -53 L 40.28125 -53 C 42.050781 -53 43.691406 -52.660156 45.203125 -51.984375 C 46.722656 -51.316406 48.046875 -50.414062 49.171875 -49.28125 C 50.304688 -48.15625 51.207031 -46.832031 51.875 -45.3125 C 52.550781 -43.789062 52.890625 -42.148438 52.890625 -40.390625 L 52.890625 0 L 45.265625 0 L 45.265625 -40.390625 C 45.265625 -41.796875 44.785156 -42.976562 43.828125 -43.9375 C 42.878906 -44.894531 41.695312 -45.375 40.28125 -45.375 L 12.609375 -45.375 C 11.203125 -45.375 10.019531 -44.894531 9.0625 -43.9375 C 8.101562 -42.976562 7.625 -41.796875 7.625 -40.390625 L 7.625 0 L 0 0 Z M 0 -40.390625 "/></g></g></g><g fill="#ffffff" fill-opacity="1"><g transform="translate(200.298312, 190.187984)"><g><path d="M 12.609375 -53 L 40.390625 -53 C 42.085938 -53 43.710938 -52.660156 45.265625 -51.984375 C 46.816406 -51.316406 48.15625 -50.414062 49.28125 -49.28125 C 50.414062 -48.15625 51.316406 -46.816406 51.984375 -45.265625 C 52.660156 -43.710938 53 -42.085938 53 -40.390625 L 53 0 L 45.375 0 L 45.375 -40.390625 C 45.375 -41.796875 44.894531 -42.976562 43.9375 -43.9375 C 42.976562 -44.894531 41.796875 -45.375 40.390625 -45.375 L 12.609375 -45.375 C 11.335938 -45.375 10.222656 -44.945312 9.265625 -44.09375 C 8.316406 -43.25 7.769531 -42.191406 7.625 -40.921875 L 7.625 0 L 0 0 L 0 -73.78125 L 7.625 -73.78125 L 7.625 -51.9375 C 8.40625 -52.289062 9.203125 -52.554688 10.015625 -52.734375 C 10.828125 -52.910156 11.691406 -53 12.609375 -53 Z M 12.609375 -53 "/></g></g></g><g fill="#ffffff" fill-opacity="1"><g transform="translate(259.661443, 190.187984)"><g><path d="M 0 -12.609375 L 0 -53.109375 L 7.625 -53.109375 L 7.625 -12.609375 C 7.625 -11.203125 8.101562 -10.019531 9.0625 -9.0625 C 10.019531 -8.101562 11.203125 -7.625 12.609375 -7.625 L 40.390625 -7.625 C 41.796875 -7.625 42.976562 -8.101562 43.9375 -9.0625 C 44.894531 -10.019531 45.375 -11.203125 45.375 -12.609375 L 45.375 -53.109375 L 53 -53.109375 L 53 -12.609375 C 53 -10.847656 52.660156 -9.207031 51.984375 -7.6875 C 51.316406 -6.164062 50.414062 -4.835938 49.28125 -3.703125 C 48.15625 -2.578125 46.816406 -1.675781 45.265625 -1 C 43.710938 -0.332031 42.085938 0 40.390625 0 L 12.609375 0 C 10.847656 0 9.207031 -0.332031 7.6875 -1 C 6.164062 -1.675781 4.835938 -2.578125 3.703125 -3.703125 C 2.578125 -4.835938 1.675781 -6.164062 1 -7.6875 C 0.332031 -9.207031 0 -10.847656 0 -12.609375 Z M 0 -12.609375 "/></g></g></g><g fill="#ffffff" fill-opacity="1"><g transform="translate(319.024574, 190.187984)"><g><path d="M 0 -40.390625 C 0 -42.148438 0.332031 -43.789062 1 -45.3125 C 1.675781 -46.832031 2.578125 -48.15625 3.703125 -49.28125 C 4.835938 -50.414062 6.164062 -51.316406 7.6875 -51.984375 C 9.207031 -52.660156 10.847656 -53 12.609375 -53 L 40.28125 -53 C 42.050781 -53 43.691406 -52.660156 45.203125 -51.984375 C 46.722656 -51.316406 48.046875 -50.414062 49.171875 -49.28125 C 50.304688 -48.15625 51.207031 -46.832031 51.875 -45.3125 C 52.550781 -43.789062 52.890625 -42.148438 52.890625 -40.390625 L 52.890625 0 L 45.265625 0 L 45.265625 -40.390625 C 45.265625 -41.796875 44.785156 -42.976562 43.828125 -43.9375 C 42.878906 -44.894531 41.695312 -45.375 40.28125 -45.375 L 12.609375 -45.375 C 11.203125 -45.375 10.019531 -44.894531 9.0625 -43.9375 C 8.101562 -42.976562 7.625 -41.796875 7.625 -40.390625 L 7.625 0 L 0 0 Z M 0 -40.390625 "/></g></g></g><g fill="#ffffff" fill-opacity="1"><g transform="translate(378.281697, 190.187984)"><g><path d="M 7.625 -73.78125 L 7.625 -52.046875 C 8.40625 -52.398438 9.164062 -52.664062 9.90625 -52.84375 C 10.65625 -53.019531 11.453125 -53.109375 12.296875 -53.109375 L 53 -53.109375 L 53 -45.46875 L 12.609375 -45.46875 C 11.203125 -45.46875 10.019531 -44.988281 9.0625 -44.03125 C 8.101562 -43.082031 7.625 -41.898438 7.625 -40.484375 L 7.625 -12.609375 C 7.625 -11.265625 8.082031 -10.113281 9 -9.15625 C 9.925781 -8.207031 11.0625 -7.695312 12.40625 -7.625 L 40.390625 -7.625 C 41.796875 -7.625 42.976562 -8.101562 43.9375 -9.0625 C 44.894531 -10.019531 45.375 -11.171875 45.375 -12.515625 L 53 -12.515625 C 53 -10.878906 52.695312 -9.351562 52.09375 -7.9375 C 51.5 -6.53125 50.707031 -5.257812 49.71875 -4.125 C 48.726562 -3 47.523438 -2.082031 46.109375 -1.375 C 44.691406 -0.664062 43.207031 -0.242188 41.65625 -0.109375 L 41.65625 0 L 12.296875 0 C 10.597656 -0.0703125 9.003906 -0.441406 7.515625 -1.109375 C 6.035156 -1.785156 4.726562 -2.6875 3.59375 -3.8125 C 2.46875 -4.945312 1.585938 -6.269531 0.953125 -7.78125 C 0.316406 -9.300781 0 -10.910156 0 -12.609375 L 0 -73.78125 Z M 7.625 -73.78125 "/></g></g></g><g fill="#ffffff" fill-opacity="1"><g transform="translate(437.644829, 190.187984)"><g><path d="M 40.390625 -53 C 42.085938 -53 43.710938 -52.660156 45.265625 -51.984375 C 46.816406 -51.316406 48.15625 -50.414062 49.28125 -49.28125 C 50.414062 -48.15625 51.316406 -46.832031 51.984375 -45.3125 C 52.660156 -43.789062 53 -42.179688 53 -40.484375 L 53 -34.65625 C 52.925781 -32.96875 52.535156 -31.394531 51.828125 -29.9375 C 51.128906 -28.488281 50.210938 -27.234375 49.078125 -26.171875 C 47.941406 -25.117188 46.632812 -24.273438 45.15625 -23.640625 C 43.675781 -23.003906 42.085938 -22.6875 40.390625 -22.6875 L 7.625 -22.6875 L 7.625 -12.609375 C 7.625 -11.203125 8.101562 -10.019531 9.0625 -9.0625 C 10.019531 -8.101562 11.203125 -7.625 12.609375 -7.625 L 40.390625 -7.625 C 41.796875 -7.625 42.976562 -8.101562 43.9375 -9.0625 C 44.894531 -10.019531 45.375 -11.203125 45.375 -12.609375 L 53 -12.609375 C 53 -10.847656 52.660156 -9.207031 51.984375 -7.6875 C 51.316406 -6.164062 50.414062 -4.835938 49.28125 -3.703125 C 48.15625 -2.578125 46.816406 -1.675781 45.265625 -1 C 43.710938 -0.332031 42.085938 0 40.390625 0 L 12.609375 0 C 10.847656 0 9.207031 -0.332031 7.6875 -1 C 6.164062 -1.675781 4.835938 -2.578125 3.703125 -3.703125 C 2.578125 -4.835938 1.675781 -6.164062 1 -7.6875 C 0.332031 -9.207031 0 -10.847656 0 -12.609375 L 0 -40.390625 C 0 -42.085938 0.332031 -43.710938 1 -45.265625 C 1.675781 -46.816406 2.578125 -48.15625 3.703125 -49.28125 C 4.835938 -50.414062 6.164062 -51.316406 7.6875 -51.984375 C 9.207031 -52.660156 10.847656 -53 12.609375 -53 Z M 45.375 -40.390625 C 45.375 -41.796875 44.894531 -42.976562 43.9375 -43.9375 C 42.976562 -44.894531 41.796875 -45.375 40.390625 -45.375 L 12.609375 -45.375 C 11.203125 -45.375 10.019531 -44.894531 9.0625 -43.9375 C 8.101562 -42.976562 7.625 -41.796875 7.625 -40.390625 L 7.625 -30.3125 L 40.390625 -30.3125 C 41.734375 -30.3125 42.878906 -30.769531 43.828125 -31.6875 C 44.785156 -32.613281 45.300781 -33.75 45.375 -35.09375 Z M 45.375 -40.390625 "/></g></g></g><g fill="#ffffff" fill-opacity="1"><g transform="translate(497.00796, 190.187984)"><g><path d="M 12.609375 -53 L 40.390625 -53 C 42.085938 -53 43.710938 -52.660156 45.265625 -51.984375 C 46.816406 -51.316406 48.15625 -50.414062 49.28125 -49.28125 C 50.414062 -48.15625 51.316406 -46.832031 51.984375 -45.3125 C 52.660156 -43.789062 53 -42.148438 53 -40.390625 L 45.375 -40.390625 C 45.375 -41.796875 44.894531 -42.976562 43.9375 -43.9375 C 42.976562 -44.894531 41.796875 -45.375 40.390625 -45.375 L 12.609375 -45.375 C 11.203125 -45.375 10.019531 -44.894531 9.0625 -43.9375 C 8.101562 -42.976562 7.625 -41.796875 7.625 -40.390625 L 7.625 0 L 0 0 L 0 -40.390625 C 0 -42.148438 0.332031 -43.789062 1 -45.3125 C 1.675781 -46.832031 2.578125 -48.15625 3.703125 -49.28125 C 4.835938 -50.414062 6.164062 -51.316406 7.6875 -51.984375 C 9.207031 -52.660156 10.847656 -53 12.609375 -53 Z M 12.609375 -53 "/></g></g></g></g></g></g></svg>