<svg xmlns="http://www.w3.org/2000/svg" viewBox="0 0 1080 1080" width="1080" height="1080">
  <defs>
    <linearGradient id="g1" x1="0" y1="0" x2="1" y2="0">
      <stop offset="0%" stop-color="#00e5a0"/>
      <stop offset="100%" stop-color="#00b4d8"/>
    </linearGradient>
    <linearGradient id="g2" x1="0" y1="0" x2="0" y2="1">
      <stop offset="0%" stop-color="#13132a"/>
      <stop offset="100%" stop-color="#0a0a14"/>
    </linearGradient>
  </defs>

  <!-- Background -->
  <rect width="1080" height="1080" fill="url(#g2)"/>

  <!-- Right decorative dots -->
  <g opacity="0.13" fill="#00e5a0">
    <circle cx="980" cy="100" r="5"/><circle cx="1020" cy="100" r="5"/><circle cx="1060" cy="100" r="5"/>
    <circle cx="980" cy="140" r="5"/><circle cx="1020" cy="140" r="5"/><circle cx="1060" cy="140" r="5"/>
    <circle cx="980" cy="180" r="5"/><circle cx="1020" cy="180" r="5"/><circle cx="1060" cy="180" r="5"/>
    <circle cx="980" cy="220" r="5"/><circle cx="1020" cy="220" r="5"/><circle cx="1060" cy="220" r="5"/>
    <circle cx="980" cy="260" r="5"/><circle cx="1020" cy="260" r="5"/><circle cx="1060" cy="260" r="5"/>
    <circle cx="980" cy="300" r="5"/><circle cx="1020" cy="300" r="5"/><circle cx="1060" cy="300" r="5"/>
    <circle cx="980" cy="340" r="5"/><circle cx="1020" cy="340" r="5"/><circle cx="1060" cy="340" r="5"/>
    <circle cx="980" cy="380" r="5"/><circle cx="1020" cy="380" r="5"/><circle cx="1060" cy="380" r="5"/>
    <circle cx="980" cy="420" r="5"/><circle cx="1020" cy="420" r="5"/><circle cx="1060" cy="420" r="5"/>
    <circle cx="980" cy="460" r="5"/><circle cx="1020" cy="460" r="5"/><circle cx="1060" cy="460" r="5"/>
    <circle cx="980" cy="500" r="5"/><circle cx="1020" cy="500" r="5"/><circle cx="1060" cy="500" r="5"/>
    <circle cx="980" cy="540" r="5"/><circle cx="1020" cy="540" r="5"/><circle cx="1060" cy="540" r="5"/>
  </g>

  <!-- Top accent bar -->
  <rect width="1080" height="6" fill="url(#g1)"/>

  <!-- Logo mark — trident -->
  <g transform="translate(60,52)">
    <rect x="13" y="0"  width="5" height="44" fill="#00e5a0"/>
    <rect x="14" y="-8" width="4" height="10" fill="#00e5a0"/>
    <rect x="2"  y="0"  width="4" height="22" fill="#00e5a0"/>
    <rect x="2"  y="0"  width="15" height="4" fill="#00e5a0"/>
    <rect x="25" y="0"  width="4" height="22" fill="#00e5a0"/>
    <rect x="15" y="0"  width="14" height="4" fill="#00e5a0"/>
    <rect x="2"  y="42" width="27" height="4" fill="#00e5a0"/>
  </g>

  <!-- Brand name -->
  <text x="108" y="92" font-family="system-ui,-apple-system,sans-serif" font-size="28" font-weight="700" fill="#ffffff" letter-spacing="-0.3">Domain Hunter</text>

  <!-- v2.0.0 badge -->
  <rect x="952" y="58" width="88" height="34" rx="17" fill="none" stroke="#00e5a0" stroke-width="1.5" opacity="0.7"/>
  <text x="996" y="80" font-family="system-ui,-apple-system,sans-serif" font-size="15" font-weight="600" fill="#00e5a0" text-anchor="middle">v2.0.0</text>

  <!-- Divider -->
  <rect x="60" y="130" width="260" height="3" fill="url(#g1)" rx="1.5"/>

  <!-- Category label -->
  <text x="60" y="188" font-family="system-ui,-apple-system,sans-serif" font-size="16" font-weight="600" fill="#00e5a0" letter-spacing="3">ALAN ADI İZLEME</text>

  <!-- Main headline -->
  <text x="60" y="310" font-family="system-ui,-apple-system,sans-serif" font-size="88" font-weight="800" fill="#ffffff" letter-spacing="-2">Alan adlarınız,</text>
  <text x="60" y="415" font-family="system-ui,-apple-system,sans-serif" font-size="88" font-weight="800" fill="#00e5a0" letter-spacing="-2">kontrol altında.</text>

  <!-- Description -->
  <rect x="60" y="460" width="4" height="80" fill="#00e5a0" rx="2" opacity="0.55"/>
  <text x="84" y="492" font-family="system-ui,-apple-system,sans-serif" font-size="22" fill="#9999bb">80+ TLD, WHOIS izleme,</text>
  <text x="84" y="522" font-family="system-ui,-apple-system,sans-serif" font-size="22" fill="#9999bb">SMTP e-posta bildirimleri.</text>

  <!-- Tech pills -->
  <g font-family="system-ui,-apple-system,sans-serif" font-size="15" font-weight="600">
    <rect x="60"  y="590" width="96"  height="34" rx="17" fill="#7a86c8" opacity="0.18"/>
    <text x="108" y="612" fill="#aab0e8" text-anchor="middle">PHP 8.1+</text>

    <rect x="166" y="590" width="80"  height="34" rx="17" fill="#00e5a0" opacity="0.12"/>
    <text x="206" y="612" fill="#00e5a0" text-anchor="middle">Slim 4</text>

    <rect x="256" y="590" width="150" height="34" rx="17" fill="#00b4d8" opacity="0.12"/>
    <text x="331" y="612" fill="#00b4d8" text-anchor="middle">Symfony Console</text>

    <rect x="416" y="590" width="62"  height="34" rx="17" fill="#00b4d8" opacity="0.10"/>
    <text x="447" y="612" fill="#88ccdd" text-anchor="middle">CLI</text>

    <rect x="488" y="590" width="96"  height="34" rx="17" fill="#9dbb00" opacity="0.15"/>
    <text x="536" y="612" fill="#c8d84a" text-anchor="middle">GPL-3.0</text>

    <rect x="594" y="590" width="124" height="34" rx="17" fill="#ff6b6b" opacity="0.12"/>
    <text x="656" y="612" fill="#ff9999" text-anchor="middle">Açık Kaynak</text>
  </g>

  <!-- Footer divider -->
  <rect x="60" y="1000" width="960" height="1" fill="#ffffff" opacity="0.08"/>

  <!-- Author -->
  <text x="60"  y="1046" font-family="system-ui,-apple-system,sans-serif" font-size="19" font-weight="700" fill="#ffffff">Bahri Meriç Canlı</text>
  <text x="258" y="1046" font-family="system-ui,-apple-system,sans-serif" font-size="19" fill="#555577">· bahricanli.tr</text>

  <!-- Site URL -->
  <text x="1020" y="1046" font-family="system-ui,-apple-system,sans-serif" font-size="19" font-weight="600" fill="#00e5a0" text-anchor="end">domainhunter.tr</text>
</svg>
